<?xml version="1.0" encoding="utf-8"?>
<!-- Generator: Adobe Illustrator 22.1.0, SVG Export Plug-In . SVG Version: 6.00 Build 0)  -->
<svg version="1.1" id="Layer_1" xmlns="http://www.w3.org/2000/svg" xmlns:xlink="http://www.w3.org/1999/xlink" x="0px" y="0px"
	 viewBox="0 0 750 1334" style="enable-background:new 0 0 750 1334;" xml:space="preserve">
<style type="text/css">
	.st0{fill:#723A18;}
	.st1{fill:#5C2400;}
	.st2{fill:#FFFFFF;}
	.st3{fill:#732A00;}
	.st4{fill:#5C2C00;}
	.st5{fill:#733A00;}
	.st6{fill:none;}
	.st7{stroke:#8B4C20;stroke-miterlimit:10;}
	.st8{font-family:'MyriadPro-Regular';}
	.st9{font-size:74px;}
	.st10{fill:#5C2900;}
	.st11{fill:#5C2700;}
	.st12{fill:#A24400;}
</style>
<g>
	<g>
		<path class="st0" d="M3.5,537.4c17-7.3,35.8-5.6,53.3-1.4c17,4.1,33.7,9.9,50.3,15.6c34.8,12,69.1,25.7,102.7,40.6
			c33.1,14.7,65.2,31.5,97.8,47.2c31.8,15.3,64.8,26.1,99.7,31.8c39.2,6.4,78.9,7.5,118.5,8.7c1.9,0.1,1.9-2.9,0-3
			c-36.6-1-73.2-2.1-109.5-7.3c-36.2-5.2-70.7-15.4-103.8-31.1c-33.3-15.8-65.8-33.1-99.5-48.1c-33-14.7-66.6-28.2-100.7-40.2
			c-19.1-6.7-38.4-13.6-58.2-17.9c-17.4-3.8-35.5-4.7-52.2,2.5C0.2,535.6,1.7,538.2,3.5,537.4L3.5,537.4z"/>
	</g>
</g>
<g>
	<g>
		<path class="st1" d="M744.1,578.9c-17.7-8.5-37.2-6.3-55.4-0.3c-20.2,6.6-39.4,16.7-58.4,26.2c-20.6,10.3-40.4,21.7-59.1,35.2
			c-18.7,13.5-36.8,27.7-55.5,41.1c-18.8,13.5-37.8,26.6-57.1,39.3c-18.6,12.3-37.4,24.5-57.2,34.6c-42,21.5-89.3,28.5-135.8,32.7
			c-52.3,4.8-105.1,3.9-157.2-2.4c-1.9-0.2-1.9,2.8,0,3c46,5.6,92.5,6.9,138.8,3.8c22.4-1.5,44.7-4,66.9-7.5
			c22.4-3.6,44.8-8.4,65.9-16.7c19.8-7.8,38.4-18.4,56.4-29.7c19.1-12,37.9-24.6,56.5-37.4c19-13.2,37.7-26.7,56.2-40.6
			c18-13.6,36-27.1,55.5-38.3c21.4-12.3,43.9-23.2,66.4-33.2c22.2-9.8,48.4-18.4,71.7-7.2C744.3,582.3,745.9,579.7,744.1,578.9
			L744.1,578.9z"/>
	</g>
</g>
<g>
	<path class="st2" d="M144.3,560.5c1.6-24.6,23.1-44.5,46.9-50.9s49.2-1.8,72.7,5.7c10.1,3.2,20.4,7.1,27.5,14.9
		c6.4,7,9.7,16.2,12.4,25.3c7.8,25.5,12.5,55.4-3.3,76.9"/>
	<g>
		<path class="st3" d="M145.8,560.5c1.4-17,12-31.4,26-40.5c16-10.5,35.3-13.1,54-11.4c10.4,0.9,20.6,3.2,30.6,6
			c8.8,2.5,17.9,5.2,25.7,10c16.4,10.1,21.3,31.3,24.9,49c4,19.6,4.3,41-7.7,58c-1.1,1.6,1.5,3.1,2.6,1.5
			c11-15.5,12.1-34.8,9.3-53.1c-1.5-10.1-4.2-20-7.4-29.7c-3.1-9.1-7.2-18.1-14.7-24.4c-6.9-5.8-15.5-9-24-11.8
			c-10.9-3.5-22.1-6.3-33.5-7.8c-19.8-2.6-40.7-1-58.2,9.3c-16.4,9.6-28.9,25.7-30.5,45C142.7,562.4,145.7,562.4,145.8,560.5
			L145.8,560.5z"/>
	</g>
</g>
<g>
	<g>
		<path class="st4" d="M87.5,501.5c23.4,1.5,42.2,17.5,63.2,26c1.8,0.7,2.6-2.2,0.8-2.9c-21.4-8.7-40.2-24.7-64-26.1
			C85.5,498.4,85.6,501.4,87.5,501.5L87.5,501.5z"/>
	</g>
</g>
<g>
	<g>
		<path class="st5" d="M192.6,447.5c3.8,15.2,7.7,30.4,11.5,45.6c0.5,1.9,3.4,1.1,2.9-0.8c-3.8-15.2-7.7-30.4-11.5-45.6
			C195,444.9,192.1,445.7,192.6,447.5L192.6,447.5z"/>
	</g>
</g>
<rect x="54.8" y="340.2" class="st6" width="641.2" height="864.8"/>
<text transform="matrix(1 0 0 1 271.0361 392.7158)"><tspan x="0" y="0" class="st7 st8 st9">Sahara </tspan><tspan x="30.6" y="88.8" class="st7 st8 st9">Gold</tspan></text>
<g>
	<g>
		<path class="st10" d="M320.1,564.8c18.2,0.6,36.3,0.4,54.4-0.6c1.9-0.1,1.9-3.1,0-3c-18.1,1-36.3,1.2-54.4,0.6
			C318.2,561.7,318.2,564.7,320.1,564.8L320.1,564.8z"/>
	</g>
</g>
<g>
	<g>
		<path class="st11" d="M321.6,610.5c14.6,11.6,30.8,20.8,48.2,27.5c1.8,0.7,2.6-2.2,0.8-2.9c-16.9-6.5-32.7-15.5-46.9-26.7
			C322.2,607.2,320.1,609.3,321.6,610.5L321.6,610.5z"/>
	</g>
</g>
<g>
	<g>
		<path class="st12" d="M258.6,499.1c2.1-15.3,6.2-30.2,12.1-44.5c0.7-1.8-2.2-2.6-2.9-0.8c-5.9,14.3-10,29.2-12.1,44.5
			C255.5,500.2,258.4,501.1,258.6,499.1L258.6,499.1z"/>
	</g>
</g>
<g>
	<g>
		<path d="M195.1,457.6c1.9,0,1.9-3,0-3C193.2,454.6,193.2,457.6,195.1,457.6L195.1,457.6z"/>
	</g>
</g>
<g>
	<g>
		<path class="st12" d="M195.1,460.5c1.9,0,1.9-3,0-3C193.2,457.5,193.2,460.5,195.1,460.5L195.1,460.5z"/>
	</g>
</g>
<g>
	<g>
		<path d="M198.1,509c1.9,0,1.9-3,0-3C196.1,506,196.1,509,198.1,509L198.1,509z"/>
	</g>
</g>
</svg>
